<?xml version="1.0" encoding="utf-8"?>
<!-- Generator: Adobe Illustrator 24.0.1, SVG Export Plug-In . SVG Version: 6.00 Build 0)  -->
<svg version="1.1" id="Capa_1" xmlns="http://www.w3.org/2000/svg" xmlns:xlink="http://www.w3.org/1999/xlink" x="0px" y="0px"
	 viewBox="0 0 1080 1080" style="enable-background:new 0 0 1080 1080;" xml:space="preserve">
<style type="text/css">
	.st0{fill:#134251;}
	.st1{fill:#2F828D;}
	.st2{fill:#8DD1E6;}
	.st3{fill:#FCFCF2;}
	.st4{fill:#90312F;}
</style>
<g>
	<g>
		<g>
			<g>
				<path class="st1" d="M569.49,345.59c5.05-5.92,11.2-11.16,18.21-15.42c24.67-15.01,55.73-13.33,78.57,4.41
					c16.61,12.91,26.44,29.99,30.46,50.5c0.44,2.25,1.32,3.5,3.41,4.57c25.52,13.11,39.32,34.57,43.55,62.46
					c3.02,19.92-0.41,38.88-10.49,56.39c-11.16,19.37-27.39,32.22-49.46,37.17c-0.37,0.08-0.74,0.18-1.33,0.33c0,2.92,0,5.85,0,8.78
					c0,17.19,0.7,34.42-0.17,51.56c-1.13,22.28-0.21,44.53-0.62,66.79c-0.09,4.89-2.67,8.3-6.4,10.98
					c-6.35,4.55-13.73,6.68-21.16,8.51c-16.5,4.05-33.32,5.87-50.22,7.15c-20.95,1.58-41.92,1.71-62.9,1.04
					c-16.72-0.53-33.37-1.87-49.91-4.45c-11-1.72-22.02-3.56-32.29-8.04c-3.83-1.67-7.52-4.04-10.67-6.78
					c-4.13-3.58-4.66-9.05-2.36-14.06c0.43-0.94,0.62-2.06,0.62-3.1c0.05-8.52,0.03-17.04,0.03-25.55
					c0-36.46-0.02-72.91,0.05-109.37c0-2.04-0.5-2.87-2.56-3.46c-26.68-7.67-43.89-25.5-52.4-51.34
					c-9.6-29.14-5.43-56.72,12.98-81.56c10.28-13.86,23.99-23.09,40.9-27.19c1.84-0.45,2.65-1.42,3.41-2.95
					c7.58-15.29,18.56-27.47,33.9-35.1c24.62-12.24,48.61-10.46,71.38,4.85C559.48,336.38,564.21,341.14,569.49,345.59z
					 M461.23,597.55c0.57,0,0.79,0.03,1.01,0c9.65-1.75,19.27-3.66,28.95-5.23c16.32-2.65,32.68-5.13,49.03-7.58
					c13.82-2.07,27.69-2.85,41.64-1.21c24.66,2.9,49.09,7.17,73.46,11.84c3.98,0.76,7.97,1.5,12.16,2.29c0-0.95,0-1.56,0-2.16
					c0-18.51-0.01-37.02,0.02-55.53c0.01-4.57,2.67-7.65,6.97-8.08c17.49-1.73,31.18-10.22,41.34-24.19
					c13.51-18.58,17.15-39.39,11.5-61.51c-5.4-21.16-17.77-36.86-38.46-45.16c-3.69-1.48-5.52-3.83-5.97-7.7
					c-1.68-14.7-7.09-27.89-17.12-38.83c-14.65-15.97-32.7-22.86-54.2-18.08c-15.35,3.41-27,12.58-35.72,25.55
					c-3.75,5.58-9.59,5.67-13.42,0.17c-3.64-5.24-7.68-10.12-12.71-14.08c-17.29-13.62-36.23-17.18-56.76-8.52
					c-15.97,6.73-26.32,19.12-32.97,34.81c-1.28,3.03-3.38,4.67-6.55,5.14c-6.65,0.99-12.97,3.05-18.71,6.5
					c-20.93,12.57-31.14,31.71-32.89,55.54c-1.27,17.31,3.14,33.35,13.47,47.44c9.65,13.16,22.42,21.53,38.79,23.91
					c4.77,0.69,7.17,3.43,7.17,8.34c0,24.01,0,48.01,0,72.02C461.23,594.6,461.23,595.98,461.23,597.55z M461.29,656.18
					c6.06-1.52,11.84-3.19,17.71-4.39c23.5-4.82,47.35-6.37,71.26-6.91c19.51-0.44,39,0.05,58.45,1.7
					c14.34,1.21,28.61,2.89,42.65,6.16c5.08,1.18,10.07,2.75,15.14,4.15c0-14.67,0-29.36,0-44.03c-0.65-0.16-1.17-0.32-1.7-0.42
					c-22.13-3.91-44.23-8.05-66.42-11.62c-10.51-1.69-21.19-2.93-31.82-3.19c-14.88-0.37-29.56,2.44-44.23,4.69
					c-11.75,1.8-23.47,3.85-35.19,5.87c-8.14,1.4-16.27,2.93-24.4,4.37c-1.05,0.19-1.57,0.44-1.56,1.74
					c0.09,13.16,0.08,26.32,0.11,39.47C461.29,654.59,461.29,655.41,461.29,656.18z M664.58,673.57c-0.04-0.29-0.09-0.58-0.13-0.87
					c-1.41-0.62-2.79-1.31-4.23-1.84c-9.92-3.66-20.28-5.46-30.68-6.95c-17.18-2.47-34.47-3.59-51.8-4.03
					c-19.44-0.49-38.85-0.05-58.23,1.55c-14.96,1.24-29.86,2.93-44.44,6.61c-4.6,1.16-9.07,2.87-13.6,4.33
					c0.02,0.26,0.04,0.53,0.06,0.79c0.95,0.46,1.87,0.96,2.84,1.36c9.01,3.69,18.52,5.42,28.05,6.93
					c17.45,2.78,35.04,4.06,52.68,4.54c21.29,0.58,42.56,0.25,63.8-1.62c14.49-1.28,28.91-3.01,43.02-6.66
					C656.21,676.59,660.36,674.96,664.58,673.57z"/>
			</g>
		</g>
		<g>
			<g>
				<path class="st1" d="M783.87,540.51c-2.64-1.17-5.19-2.09-7.53-3.39c-15.08-8.37-21.56-25.62-15.7-42.05
					c6.88-19.28,13.91-38.52,20.87-57.77c0.97-2.69,1.91-5.39,2.96-8.05c1.68-4.29,5.61-6.16,9.7-4.67c3.94,1.43,5.78,5.6,4.23,9.92
					c-7.74,21.52-15.51,43.03-23.29,64.53c-3.17,8.77-1.41,17.07,4.86,22.45c0.22,0.19,0.48,0.35,0.92,0.65
					c2.04-5.63,4.04-11.14,6.03-16.64c8.02-22.16,16.02-44.32,24.06-66.47c1.62-4.46,5.69-6.38,9.8-4.79
					c4.11,1.59,5.75,5.63,4.12,10.15c-9.89,27.4-19.78,54.79-29.67,82.19c-0.16,0.43-0.3,0.87-0.58,1.69
					c3.62,1.32,7.19,2.62,11.01,4.01c1.84-5.05,3.63-9.95,5.4-14.86c8.37-23.18,16.73-46.36,25.12-69.53
					c1.51-4.17,5.69-6.09,9.77-4.63c3.81,1.36,5.73,5.55,4.24,9.77c-3.65,10.34-7.43,20.64-11.15,30.96
					c-6.35,17.58-12.69,35.17-19.27,53.38c2.2,0,4.18,0.26,6.06-0.05c7.73-1.24,13.18-5.46,15.88-12.91
					c8.26-22.81,16.5-45.62,24.71-68.45c1.1-3.05,2.8-5.37,6.19-5.88c6.02-0.92,10.27,4.37,8.18,10.21
					c-4.5,12.59-9.06,25.15-13.61,37.72c-3.83,10.61-7.61,21.24-11.52,31.82c-6.59,17.86-25.61,26.83-43.66,20.63
					c-4.59-1.58-9.14-3.27-13.9-4.98c-2.33,4.98-4.64,9.84-6.9,14.73c-14.53,31.27-29.05,62.53-43.57,93.8
					c-8.72,18.79-17.42,37.6-26.13,56.39c-1.73,3.74-4.17,5.34-7.74,5.11c-3.09-0.19-5.93-2.08-6.43-5.09
					c-0.35-2.07-0.14-4.56,0.72-6.45c7.84-17.24,15.87-34.39,23.85-51.57c14.68-31.62,29.37-63.24,44.05-94.86
					C778.6,551.89,781.22,546.22,783.87,540.51z"/>
			</g>
		</g>
		<g>
			<g>
				<path class="st1" d="M357.06,541.89c4.76,9.53,9.45,18.94,14.15,28.34c12.48,24.97,24.97,49.94,37.46,74.9
					c10.09,20.17,20.17,40.35,30.29,60.5c1.47,2.92,2.68,5.8,0.9,9c-1.44,2.59-3.74,3.96-6.65,3.93c-3.02-0.03-5.28-1.54-6.65-4.28
					c-4.91-9.82-9.82-19.65-14.74-29.47c-21.59-43.15-43.18-86.3-64.77-129.45c-2.7-5.4-5.35-10.82-8.1-16.18
					c-0.36-0.71-1.17-1.57-1.86-1.67c-7.99-1.1-13.84-5.63-18.5-11.76c-8.96-11.77-13.13-25.14-12.07-39.94
					c0.51-7.11,2.74-13.64,8.36-18.54c0.52-0.46,1.06-0.94,1.67-1.25c2.44-1.26,4.57-2.58,5.98-5.28c0.81-1.55,3.23-2.55,5.13-3.19
					c20.33-6.85,42.57,1.93,53.1,20.85c12.55,22.56,2.91,51.57-20.67,62.17C359.11,541,358.13,541.42,357.06,541.89z M343.97,510.85
					c-0.11-0.04-0.23-0.07-0.34-0.11c-0.16-1.77-0.22-3.55-0.49-5.3c-1.4-9.14-4.63-17.45-11.32-24.08
					c-1.75-1.73-3.84-3.75-6.42-2.98c-2.77,0.82-3.13,3.81-3.59,6.3c-1.58,8.71,0.38,16.89,4.11,24.71
					c2.35,4.93,5.31,9.46,10.22,12.28c2.85,1.63,4.47,1.21,5.61-1.9C342.81,516.91,343.25,513.83,343.97,510.85z M355.56,525.94
					c11.74-5.78,18.09-20.25,14.87-33.15c-3.22-12.95-15.59-22.87-28.33-22.42c7.42,7.33,11.88,16.12,14.45,25.89
					C359.14,506.08,359.58,515.9,355.56,525.94z"/>
			</g>
		</g>
		<g>
			<g>
				<path class="st1" d="M661.42,744.53c0.15-1.73,0.29-3.02,0.38-4.32c0.26-3.94,2.95-6.87,6.61-7.17
					c4.11-0.33,7.65,1.93,8.05,5.99c0.68,6.84-0.33,13.36-6.43,17.84c-3.77,2.77-8.18,3.23-12.42,1.96
					c-5.52-1.66-10.95-3.77-16.2-6.16c-11.53-5.26-22.77-11.18-34.41-16.16c-14.42-6.16-29.5-9.77-45.36-8.97
					c-12.02,0.61-23.62,3.38-34.61,8.08c-12.06,5.17-23.82,11.05-35.7,16.67c-5.87,2.77-11.63,5.84-18.14,6.85
					c-9.96,1.55-16.89-3.8-18.02-13.87c-0.19-1.69-0.33-3.41-0.21-5.1c0.28-4.16,3.44-7.08,7.46-7.07c3.93,0.01,7.12,3.06,7.44,7.15
					c0.1,1.3,0.17,2.59,0.29,4.48c2.31-0.76,4.41-1.21,6.29-2.11c9.28-4.42,18.5-8.99,27.75-13.46
					c12.55-6.07,25.45-11.17,39.12-14.19c19.71-4.35,39.02-2.68,58.1,3.49c14.78,4.78,28.54,11.8,42.36,18.73
					c4.55,2.28,9.27,4.24,13.93,6.29C658.77,743.93,659.93,744.11,661.42,744.53z"/>
			</g>
		</g>
		<g>
			<g>
				<path class="st1" d="M651.7,515.29c0,11.3,0.01,22.36-0.01,33.43c-0.01,3.59-1.86,6.22-5.03,7.28
					c-4.87,1.63-9.81-1.84-9.83-7.03c-0.05-11.85-0.02-23.69-0.02-35.54c0-10.3,0.69-10.96,10.69-12.66
					c12.37-2.1,21.94-8.48,28.14-19.5c7.9-14.02,5.07-31.61-6.71-42.75c-4.46-4.22-9.55-7.36-15.43-9.14
					c-3.53-1.06-5.4-3.37-5.96-6.92c-2.58-16.54-15.57-29.42-32.15-31.82c-2.14-0.31-4.31-0.42-6.47-0.51
					c-4.63-0.19-7.95-3.41-7.87-7.71c0.08-4.24,3.35-7.23,7.94-7.27c24.37-0.21,45.95,16.07,52.25,39.53
					c0.38,1.43,1.15,1.95,2.33,2.5c16.08,7.49,26.86,19.56,30.33,37.12c3.88,19.61-2.54,35.97-17.45,49.05
					C669.43,509.56,661.09,513.33,651.7,515.29z"/>
			</g>
		</g>
	</g>
</g>
</svg>
